<svg x="0" y="0" width="500" height="500" viewBox="0 0 875 875" xmlns="http://www.w3.org/2000/svg" xmlns:xlink="http://www.w3.org/1999/xlink" xmlns:fi="http://pattern.flaticon.com/"><rect x="0px" y="0px" width="100%" height="100%" opacity="1" fill="#000000"/><defs><g transform="matrix(0.07478199154138565 0 0 0.07478199154138565 48.855751037597656 321.8557434082031)" id="L1_19"><path d="M268.662,243.351c-3.91-3.91-10.24-3.91-14.15,0c-3.9,3.9-3.9,10.23,0,14.14c3.91,3.9,10.24,3.9,14.15,0    C272.562,253.581,272.562,247.251,268.662,243.351z" fill="#363636"/><path d="M395.933,116.07c-19.54-19.539-51.172-19.54-70.713,0c-19.489,19.489-19.49,51.209,0.003,70.714    c19.496,19.484,51.216,19.492,70.71-0.002C415.471,167.244,415.475,135.611,395.933,116.07z M381.791,172.639    c-11.693,11.694-30.727,11.694-42.426,0.002c-11.695-11.702-11.696-30.736-0.002-42.429c11.723-11.723,30.703-11.725,42.428,0    C393.514,141.934,393.516,160.915,381.791,172.639z" fill="#363636"/><path d="M509.07,2.929c-1.964-1.963-4.644-3.027-7.43-2.922c-2.261,0.081-56.096,2.245-120.091,24.864    c-51.28,18.106-94.023,44.029-127.042,77.049c-7.399,7.399-14.599,15.245-21.488,23.396c-32.648-19.218-58.81-13.192-75.349-4.341    c-38.081,20.38-61.652,75.716-61.652,115.296c0.003,4.044,2.44,7.691,6.176,9.238c1.237,0.513,2.537,0.762,3.825,0.762    c2.603,0,5.16-1.017,7.073-2.929c20.083-20.083,44.854-18.827,52.946-17.763l3.502,3.502c-6.892,16.4-12.444,32.708-16.516,48.569    c-1.47,5.74-0.974,11.814,1.211,17.37c-9.628,4.437-18.917,10.952-27.005,19.04c-25.741,25.742-30.968,88.476-31.178,91.134    c-0.23,2.917,0.828,5.789,2.897,7.858c1.883,1.882,4.43,2.929,7.07,2.929c0.262,0,0.525-0.01,0.788-0.031    c2.658-0.209,65.394-5.436,91.135-31.177c8.085-8.085,14.599-17.373,19.036-26.999c5.882,2.313,11.936,2.598,17.38,1.203    c15.854-4.071,32.16-9.621,48.562-16.514l3.502,3.502c1.063,8.093,2.319,32.864-17.763,52.945    c-2.859,2.86-3.715,7.161-2.167,10.897c1.547,3.737,5.193,6.173,9.238,6.173c39.58,0,94.915-23.571,115.295-61.652    c8.851-16.537,14.877-42.699-4.341-75.348c8.147-6.886,15.994-14.086,23.396-21.488c33.02-33.02,58.942-75.763,77.048-127.039    c22.62-63.998,24.783-117.834,24.864-120.094C512.092,7.584,511.033,4.893,509.07,2.929z M118.376,214.762    c6.212-30.063,24.255-63.052,48.735-76.154c16.359-8.754,34.24-7.896,53.252,2.511c-16.197,21.302-30.278,44.252-42.015,68.487    c-0.149-0.092-1.949-2.355-5.293-3.109C171.68,206.186,145.221,200.495,118.376,214.762z M183.8,370.63    c-13.75,13.75-46.005,21.002-66.392,23.963c2.962-20.388,10.215-52.642,23.964-66.391c7.7-7.7,16.628-13.538,25.602-16.826    l33.652,33.652C197.338,354.002,191.501,362.93,183.8,370.63z M229.39,339.603c-2.894,0.741-6.246-0.347-8.738-2.835    c-12.937-12.937-17.998-17.998-19.586-19.585c-2.912-2.912-10.053-10.053-25.826-25.827c-2.494-2.499-3.582-5.85-2.843-8.739    c3.203-12.474,7.392-25.272,12.486-38.193l82.695,82.695C254.655,332.214,241.859,336.402,229.39,339.603z M373.394,344.891    c-13.102,24.479-46.09,42.523-76.152,48.734c9.585-18.037,11.698-40.998,8.196-54.921c-0.813-3.234-2.923-4.86-3.041-5.051    c24.233-11.737,47.182-25.818,68.486-42.015C381.29,310.652,382.147,328.535,373.394,344.891z M395.94,243.35    c-9.011,9.01-18.714,17.715-28.84,25.872c-24.342,19.6-51.134,36.202-79.718,49.418l-94.02-94.018    c13.216-28.586,29.818-55.378,49.416-79.717c8.164-10.133,16.868-19.837,25.875-28.843    c29.625-29.626,67.859-53.204,113.671-70.176l83.792,83.792C449.146,175.489,425.568,213.723,395.94,243.35z M473.311,108.587    l-69.896-69.896c38.081-11.828,71.21-16.257,87.746-17.849C489.568,37.381,485.138,70.51,473.311,108.587z" fill="#363636"/><path d="M240.371,413.049c-3.907-3.905-10.239-3.903-14.143,0.002l-28.28,28.29c-3.904,3.906-3.903,10.238,0.002,14.142    c3.907,3.904,10.239,3.904,14.143-0.002l28.28-28.29C244.277,423.285,244.276,416.953,240.371,413.049z" fill="#363636"/><path d="M98.954,271.631c-3.904-3.906-10.235-3.906-14.142-0.002l-28.29,28.28c-3.906,3.904-3.907,10.236-0.003,14.142    c3.903,3.904,10.234,3.908,14.142,0.002l28.29-28.28C102.857,281.869,102.858,275.537,98.954,271.631z" fill="#363636"/><path d="M169.663,427.2c-3.903-3.905-10.236-3.905-14.142-0.001l-67.74,67.73c-3.906,3.905-3.906,10.237-0.001,14.142    c3.903,3.905,10.236,3.907,14.142,0.001l67.74-67.73C173.568,437.437,173.568,431.105,169.663,427.2z" fill="#363636"/><path d="M89.663,427.2c-3.904-3.905-10.237-3.905-14.142-0.001l-67.74,67.73c-3.906,3.905-3.906,10.237-0.001,14.142    c3.903,3.905,10.236,3.907,14.142,0.001l67.74-67.73C93.568,437.437,93.568,431.105,89.663,427.2z" fill="#363636"/><path d="M84.802,342.338c-3.904-3.904-10.237-3.904-14.142,0.001l-67.73,67.74c-3.905,3.906-3.905,10.237,0.001,14.143    c3.905,3.905,10.237,3.905,14.142-0.001l67.73-67.74C88.708,352.575,88.708,346.244,84.802,342.338z" fill="#363636"/><path d="M311.083,200.919c-3.906-3.905-10.236-3.905-14.143,0l-14.14,14.14c-3.905,3.905-3.905,10.237,0,14.143    c3.906,3.905,10.237,3.905,14.143,0l14.14-14.14C314.988,211.157,314.988,204.825,311.083,200.919z" fill="#363636"/></g><g transform="matrix(0.20000000298023224 0 0 0.20000000298023224 211.00001525878906 225)" id="L1_20"><path d="m59.312 167.516c-1.562-1.562-4.094-1.562-5.656 0l-2.828 2.828-2.828-2.828c-1.562-1.562-4.094-1.562-5.656 0s-1.562 4.094 0 5.656l2.828 2.828-2.828 2.828c-1.562 1.562-1.562 4.094 0 5.656.781.781 1.805 1.172 2.828 1.172s2.047-.391 2.828-1.172l2.828-2.828 2.828 2.828c.781.781 1.805 1.172 2.828 1.172s2.047-.391 2.828-1.172c1.562-1.562 1.562-4.094 0-5.656l-2.828-2.828 2.828-2.828c1.563-1.563 1.563-4.094 0-5.656z" fill="#212121"/><circle cx="78" cy="164" r="4" fill="#212121"/><circle cx="66" cy="120" r="4" fill="#212121"/><path d="m158.828 152c2.211 0 4-1.789 4-4v-32c0-2.211-1.789-4-4-4s-4 1.789-4 4v32c0 2.211 1.789 4 4 4z" fill="#212121"/><path d="m138.828 160c-2.211 0-4 1.789-4 4v32c0 2.211 1.789 4 4 4s4-1.789 4-4v-32c0-2.211-1.789-4-4-4z" fill="#212121"/><path d="m210.828 152c2.211 0 4-1.789 4-4v-32c0-2.211-1.789-4-4-4s-4 1.789-4 4v32c0 2.211 1.789 4 4 4z" fill="#212121"/><path d="m190.828 160c-2.211 0-4 1.789-4 4v32c0 2.211 1.789 4 4 4s4-1.789 4-4v-32c0-2.211-1.789-4-4-4z" fill="#212121"/><path d="m226.828 112c-2.211 0-4 1.789-4 4v32c0 2.211 1.789 4 4 4s4-1.789 4-4v-32c0-2.211-1.789-4-4-4z" fill="#212121"/><path d="m122.828 160c-2.211 0-4 1.789-4 4v32c0 2.211 1.789 4 4 4s4-1.789 4-4v-32c0-2.211-1.789-4-4-4z" fill="#212121"/><path d="m166.828 160h-4c-6.617 0-12 5.383-12 12v16c0 6.617 5.383 12 12 12h4c6.617 0 12-5.383 12-12v-16c0-6.617-5.383-12-12-12zm4 28c0 2.207-1.793 4-4 4h-4c-2.207 0-4-1.793-4-4v-16c0-2.207 1.793-4 4-4h4c2.207 0 4 1.793 4 4z" fill="#212121"/><path d="m134.828 112h-4c-6.617 0-12 5.383-12 12v16c0 6.617 5.383 12 12 12h4c6.617 0 12-5.383 12-12v-16c0-6.617-5.383-12-12-12zm4 28c0 2.207-1.793 4-4 4h-4c-2.207 0-4-1.793-4-4v-16c0-2.207 1.793-4 4-4h4c2.207 0 4 1.793 4 4z" fill="#212121"/><path d="m218.828 160h-4c-6.617 0-12 5.383-12 12v16c0 6.617 5.383 12 12 12h4c6.617 0 12-5.383 12-12v-16c0-6.617-5.383-12-12-12zm4 28c0 2.207-1.793 4-4 4h-4c-2.207 0-4-1.793-4-4v-16c0-2.207 1.793-4 4-4h4c2.207 0 4 1.793 4 4z" fill="#212121"/><path d="m186.828 112h-4c-6.617 0-12 5.383-12 12v16c0 6.617 5.383 12 12 12h4c6.617 0 12-5.383 12-12v-16c0-6.617-5.383-12-12-12zm4 28c0 2.207-1.793 4-4 4h-4c-2.207 0-4-1.793-4-4v-16c0-2.207 1.793-4 4-4h4c2.207 0 4 1.793 4 4z" fill="#212121"/><path d="m257.656 73.172-32-32c-.75-.75-1.766-1.172-2.828-1.172h-120c-6.617 0-12 5.383-12 12v196c0 6.617 5.383 12 12 12h144c6.617 0 12-5.383 12-12v-172c0-1.062-.422-2.078-1.172-2.828zm-30.828-19.516 18.344 18.344h-18.344zm20 198.344h-144c-2.207 0-4-1.793-4-4v-196c0-2.207 1.793-4 4-4h116v28c0 2.211 1.789 4 4 4h28v168c0 2.207-1.793 4-4 4z" fill="#212121"/></g><path d="M75.067,2.72c-1.275,0.037-2.487,0.56-3.389,1.461l-15,15c-1.975,1.93-2.012,5.096-0.082,7.071   c1.93,1.975,5.096,2.012,7.071,0.082c0.028-0.027,0.056-0.055,0.083-0.083l6.463-6.463v42.928h-10   c-2.761-0.039-5.032,2.168-5.071,4.929s2.168,5.032,4.929,5.071c0.047,0.001,0.094,0.001,0.141,0h14.182   c0.535,0.088,1.08,0.088,1.615,0h9.203c2.761,0.039,5.032-2.168,5.071-4.929s-2.168-5.032-4.929-5.071   c-0.047-0.001-0.094-0.001-0.141,0h-5v-55c-0.001-2.762-2.241-4.999-5.003-4.998C75.163,2.718,75.115,2.719,75.067,2.72z    M130.21,2.72c-1.275,0.037-2.487,0.56-3.389,1.461l-15,15c-1.992,1.913-2.057,5.078-0.144,7.07s5.078,2.057,7.07,0.144   c0.049-0.047,0.097-0.095,0.144-0.144l6.465-6.465v42.93h-10c-2.761-0.039-5.032,2.168-5.071,4.929   c-0.039,2.761,2.168,5.032,4.929,5.071c0.047,0.001,0.094,0.001,0.141,0h14.182c0.537,0.088,1.084,0.088,1.621,0h9.197   c2.761,0.039,5.032-2.168,5.071-4.929c0.039-2.761-2.168-5.032-4.929-5.071c-0.047-0.001-0.094-0.001-0.141,0h-5v-55   c-0.001-2.762-2.241-4.999-5.003-4.998C130.306,2.718,130.258,2.719,130.21,2.72z M17.571,2.754c-9.609,0-17.5,7.891-17.5,17.5v35   c0,9.609,7.891,17.5,17.5,17.5s17.5-7.891,17.5-17.5v-35C35.071,10.645,27.18,2.754,17.571,2.754z M182.999,2.754   c-9.609,0-17.5,7.891-17.5,17.5v35c0,9.609,7.891,17.5,17.5,17.5s17.5-7.891,17.5-17.5v-35   C200.499,10.645,192.607,2.754,182.999,2.754z M238.142,2.754c-9.609,0-17.5,7.891-17.5,17.5v35c0,9.609,7.891,17.5,17.5,17.5   c9.609,0,17.5-7.891,17.5-17.5v-35C255.642,10.645,247.75,2.754,238.142,2.754z M17.571,12.754c4.241,0,7.5,3.259,7.5,7.5v35   c0,4.241-3.259,7.5-7.5,7.5s-7.5-3.259-7.5-7.5v-35C10.071,16.012,13.33,12.754,17.571,12.754z M182.999,12.754   c4.241,0,7.5,3.259,7.5,7.5v35c0,4.241-3.259,7.5-7.5,7.5s-7.5-3.259-7.5-7.5v-35C175.499,16.012,178.757,12.754,182.999,12.754z    M238.142,12.754c4.241,0,7.5,3.259,7.5,7.5v35c0,4.241-3.259,7.5-7.5,7.5s-7.5-3.259-7.5-7.5v-35   C230.642,16.012,233.9,12.754,238.142,12.754z M19.925,92.791c-1.275,0.037-2.487,0.56-3.389,1.461l-15,15   c-1.952,1.954-1.949,5.121,0.005,7.072c1.952,1.95,5.115,1.95,7.067,0l6.463-6.463v42.928h-10   c-2.761-0.039-5.032,2.168-5.071,4.929c-0.039,2.761,2.168,5.032,4.929,5.071c0.047,0.001,0.094,0.001,0.141,0h14.182   c0.537,0.088,1.084,0.088,1.621,0h9.197c2.761,0.039,5.032-2.168,5.071-4.929c0.039-2.761-2.168-5.032-4.929-5.071   c-0.047-0.001-0.094-0.001-0.141,0h-5v-55c0-2.762-2.239-5-5.001-5C20.022,92.789,19.973,92.789,19.925,92.791z M130.21,92.791   c-1.275,0.037-2.487,0.56-3.389,1.461l-15,15c-1.976,1.93-2.013,5.095-0.084,7.071c1.93,1.976,5.095,2.013,7.071,0.084   c0.028-0.027,0.056-0.055,0.083-0.083l6.465-6.465v42.93h-10c-2.761-0.039-5.032,2.168-5.071,4.929   c-0.039,2.761,2.168,5.032,4.929,5.071c0.047,0.001,0.094,0.001,0.141,0h14.182c0.537,0.088,1.084,0.088,1.621,0h9.197   c2.761,0.039,5.032-2.168,5.071-4.929c0.039-2.761-2.168-5.032-4.929-5.071c-0.047-0.001-0.094-0.001-0.141,0h-5v-55   c0-2.762-2.239-5-5.001-5C130.307,92.789,130.258,92.789,130.21,92.791z M185.352,92.791c-1.275,0.037-2.487,0.56-3.389,1.461   l-15,15c-1.976,1.93-2.013,5.095-0.084,7.071c1.93,1.976,5.095,2.013,7.071,0.084c0.028-0.027,0.056-0.055,0.083-0.083l6.465-6.465   v42.93h-10c-2.761-0.039-5.032,2.168-5.071,4.929c-0.039,2.761,2.168,5.032,4.929,5.071c0.047,0.001,0.094,0.001,0.141,0h14.182   c0.537,0.088,1.084,0.088,1.621,0h9.197c2.761,0.039,5.032-2.168,5.071-4.929c0.039-2.761-2.168-5.032-4.929-5.071   c-0.047-0.001-0.094-0.001-0.141,0h-5v-55c0-2.762-2.239-5-5.001-5C185.45,92.789,185.401,92.789,185.352,92.791z M72.714,92.824   c-9.609,0-17.5,7.891-17.5,17.5v35c0,9.609,7.891,17.5,17.5,17.5s17.5-7.891,17.5-17.5v-35   C90.214,100.715,82.322,92.824,72.714,92.824z M238.142,92.824c-9.609,0-17.5,7.891-17.5,17.5v35c0,9.609,7.891,17.5,17.5,17.5   c9.609,0,17.5-7.891,17.5-17.5v-35C255.642,100.715,247.75,92.824,238.142,92.824z M72.714,102.824c4.241,0,7.5,3.259,7.5,7.5v35   c0,4.241-3.259,7.5-7.5,7.5s-7.5-3.259-7.5-7.5v-35C65.214,106.082,68.472,102.824,72.714,102.824z M238.142,102.824   c4.241,0,7.5,3.259,7.5,7.5v35c0,4.241-3.259,7.5-7.5,7.5s-7.5-3.259-7.5-7.5v-35C230.642,106.082,233.9,102.824,238.142,102.824z    M19.925,182.861c-1.275,0.037-2.487,0.56-3.389,1.461l-15,15c-1.953,1.953-1.953,5.119,0,7.072s5.119,1.953,7.072,0l6.463-6.463   v42.926h-10c-2.761-0.039-5.032,2.168-5.071,4.929c-0.039,2.761,2.168,5.032,4.929,5.071c0.047,0.001,0.094,0.001,0.141,0h14.182   c0.537,0.088,1.084,0.088,1.621,0h9.197c2.761,0.039,5.032-2.168,5.071-4.929c0.039-2.761-2.168-5.032-4.929-5.071   c-0.047-0.001-0.094-0.001-0.141,0h-5v-55c-0.001-2.762-2.241-4.999-5.003-4.998C20.021,182.859,19.973,182.86,19.925,182.861z    M75.067,182.861c-1.275,0.037-2.487,0.56-3.389,1.461l-15,15c-1.953,1.953-1.953,5.119,0,7.072s5.119,1.953,7.072,0l6.463-6.463   v42.926h-10c-2.761-0.039-5.032,2.168-5.071,4.929c-0.039,2.761,2.168,5.032,4.929,5.071c0.047,0.001,0.094,0.001,0.141,0h14.182   c0.535,0.088,1.08,0.088,1.615,0h9.203c2.761,0.039,5.032-2.168,5.071-4.929c0.039-2.761-2.168-5.032-4.929-5.071   c-0.047-0.001-0.094-0.001-0.141,0h-5v-55c-0.001-2.762-2.241-4.999-5.003-4.998C75.163,182.859,75.115,182.86,75.067,182.861z    M130.21,182.861c-1.275,0.037-2.487,0.56-3.389,1.461l-15,15c-1.976,1.93-2.013,5.095-0.084,7.071   c1.93,1.976,5.095,2.013,7.071,0.084c0.028-0.027,0.056-0.055,0.083-0.083l6.465-6.465v42.928h-10   c-2.761-0.039-5.032,2.168-5.071,4.929c-0.039,2.761,2.168,5.032,4.929,5.071c0.047,0.001,0.094,0.001,0.141,0h14.182   c0.537,0.088,1.084,0.088,1.621,0h9.197c2.761,0.039,5.032-2.168,5.071-4.929c0.039-2.761-2.168-5.032-4.929-5.071   c-0.047-0.001-0.094-0.001-0.141,0h-5v-55c-0.001-2.762-2.241-4.999-5.003-4.998C130.306,182.859,130.258,182.86,130.21,182.861z    M185.352,182.861c-1.275,0.037-2.487,0.56-3.389,1.461l-15,15c-1.976,1.93-2.013,5.095-0.084,7.071   c1.93,1.976,5.095,2.013,7.071,0.084c0.028-0.027,0.056-0.055,0.083-0.083l6.465-6.465v42.928h-10   c-2.761-0.039-5.032,2.168-5.071,4.929c-0.039,2.761,2.168,5.032,4.929,5.071c0.047,0.001,0.094,0.001,0.141,0h14.182   c0.537,0.088,1.084,0.088,1.621,0h9.197c2.761,0.039,5.032-2.168,5.071-4.929c0.039-2.761-2.168-5.032-4.929-5.071   c-0.047-0.001-0.094-0.001-0.141,0h-5v-55c-0.001-2.762-2.241-4.999-5.003-4.998C185.448,182.859,185.4,182.86,185.352,182.861z    M238.142,182.894c-9.609,0-17.5,7.891-17.5,17.5v35c0,9.609,7.891,17.5,17.5,17.5c9.609,0,17.5-7.891,17.5-17.5v-35   C255.642,190.786,247.75,182.894,238.142,182.894z M238.142,192.894c4.241,0,7.5,3.259,7.5,7.5v35c0,4.241-3.259,7.5-7.5,7.5   s-7.5-3.259-7.5-7.5v-35C230.642,196.153,233.9,192.894,238.142,192.894z" transform="matrix(0.15156196057796478 0 0 0.15156196057796478 226.6005096435547 57.62801742553711)" id="L1_21" fill="#212121"/><g transform="matrix(0.2874561846256256 0 0 0.2874561846256256 53.32956314086914 150.37620544433594)" id="L1_22"><path d="M93.918,45.833L69.799,21.714c-0.75-0.75-2.077-0.75-2.827,0l-5.229,5.229c-0.781,0.781-0.781,2.047,0,2.828    l17.477,17.475L61.744,64.724c-0.781,0.781-0.781,2.047,0,2.828l5.229,5.229c0.375,0.375,0.884,0.587,1.414,0.587    c0.529,0,1.039-0.212,1.414-0.587l24.117-24.118C94.699,47.881,94.699,46.614,93.918,45.833z" fill="#212121"/><path d="M32.759,64.724L15.285,47.248l17.477-17.475c0.375-0.375,0.586-0.883,0.586-1.414c0-0.53-0.21-1.039-0.586-1.414    l-5.229-5.229c-0.375-0.375-0.884-0.586-1.414-0.586c-0.53,0-1.039,0.211-1.414,0.586L0.585,45.833    c-0.781,0.781-0.781,2.047,0,2.829L24.704,72.78c0.375,0.375,0.884,0.587,1.414,0.587c0.53,0,1.039-0.212,1.414-0.587l5.229-5.229    C33.542,66.771,33.542,65.505,32.759,64.724z" fill="#212121"/><path d="M60.967,13.6c-0.254-0.466-0.682-0.812-1.19-0.962l-4.239-1.251c-1.058-0.314-2.172,0.293-2.484,1.352L33.375,79.382    c-0.15,0.509-0.092,1.056,0.161,1.521c0.253,0.467,0.682,0.812,1.19,0.963l4.239,1.251c0.189,0.056,0.38,0.083,0.567,0.083    c0.863,0,1.66-0.564,1.917-1.435l19.679-66.644C61.278,14.612,61.221,14.065,60.967,13.6z" fill="#212121"/></g></defs><g fi:class="KUsePattern"><pattern id="pattern_L1_19" width="350" height="350" patternUnits="userSpaceOnUse"><use xlink:href="#L1_19" x="-350" y="-350"/><use xlink:href="#L1_19" x="0" y="-350"/><use xlink:href="#L1_19" x="350" y="-350"/><use xlink:href="#L1_19" x="-350" y="0"/><use xlink:href="#L1_19" x="0" y="0"/><use xlink:href="#L1_19" x="350" y="0"/><use xlink:href="#L1_19" x="-350" y="350"/><use xlink:href="#L1_19" x="0" y="350"/><use xlink:href="#L1_19" x="350" y="350"/></pattern><rect x="0" y="0" width="100%" height="100%" fill="url(#pattern_L1_19)"/></g><g fi:class="KUsePattern"><pattern id="pattern_L1_20" width="350" height="350" patternUnits="userSpaceOnUse"><use xlink:href="#L1_20" x="-350" y="-350"/><use xlink:href="#L1_20" x="0" y="-350"/><use xlink:href="#L1_20" x="350" y="-350"/><use xlink:href="#L1_20" x="-350" y="0"/><use xlink:href="#L1_20" x="0" y="0"/><use xlink:href="#L1_20" x="350" y="0"/><use xlink:href="#L1_20" x="-350" y="350"/><use xlink:href="#L1_20" x="0" y="350"/><use xlink:href="#L1_20" x="350" y="350"/></pattern><rect x="0" y="0" width="100%" height="100%" fill="url(#pattern_L1_20)"/></g><g fi:class="KUsePattern"><pattern id="pattern_L1_21" width="350" height="350" patternUnits="userSpaceOnUse"><use xlink:href="#L1_21" x="-350" y="-350"/><use xlink:href="#L1_21" x="0" y="-350"/><use xlink:href="#L1_21" x="350" y="-350"/><use xlink:href="#L1_21" x="-350" y="0"/><use xlink:href="#L1_21" x="0" y="0"/><use xlink:href="#L1_21" x="350" y="0"/><use xlink:href="#L1_21" x="-350" y="350"/><use xlink:href="#L1_21" x="0" y="350"/><use xlink:href="#L1_21" x="350" y="350"/></pattern><rect x="0" y="0" width="100%" height="100%" fill="url(#pattern_L1_21)"/></g><g fi:class="KUsePattern"><pattern id="pattern_L1_22" width="350" height="350" patternUnits="userSpaceOnUse"><use xlink:href="#L1_22" x="-350" y="-350"/><use xlink:href="#L1_22" x="0" y="-350"/><use xlink:href="#L1_22" x="350" y="-350"/><use xlink:href="#L1_22" x="-350" y="0"/><use xlink:href="#L1_22" x="0" y="0"/><use xlink:href="#L1_22" x="350" y="0"/><use xlink:href="#L1_22" x="-350" y="350"/><use xlink:href="#L1_22" x="0" y="350"/><use xlink:href="#L1_22" x="350" y="350"/></pattern><rect x="0" y="0" width="100%" height="100%" fill="url(#pattern_L1_22)"/></g></svg>